<svg width="34" height="39" viewBox="0 0 34 39" fill="none" xmlns="http://www.w3.org/2000/svg">
<path d="M22.5825 6.24646C23.986 4.56582 24.9416 2.30433 24.6927 0C22.6323 0.0952204 20.119 1.295 18.6658 2.9804C17.3619 4.42299 16.2023 6.77493 16.5059 8.9888C18.8151 9.17925 21.1243 7.88425 22.5825 6.24646Z" fill="black"/>
<path d="M24.6636 9.42286C21.3092 9.23242 18.4526 11.2463 16.85 11.2463C15.2475 11.2463 12.7939 9.52284 10.1363 9.56569C6.68239 9.6133 3.47732 11.4844 1.7205 14.4553C-1.88769 20.4018 0.769933 29.2192 4.27361 34.0611C5.97568 36.4559 8.03111 39.0935 10.7335 38.9983C13.2866 38.9031 14.2919 37.4176 17.3975 37.4176C20.503 37.4176 21.4038 38.9983 24.1062 38.9507C26.9131 38.9031 28.665 36.5559 30.3671 34.1563C32.3229 31.4235 33.1192 28.7907 33.169 28.6431C33.1192 28.5955 27.7592 26.6292 27.7094 20.735C27.6597 15.7979 31.9148 13.4507 32.1189 13.3031C29.725 9.90372 25.9675 9.51808 24.6636 9.42286Z" fill="black"/>
</svg>
