<svg width="37" height="37" viewBox="0 0 37 37" fill="none" xmlns="http://www.w3.org/2000/svg">
<g clip-path="url(#clip0_395_23257)">
<path d="M7.4142 25.5151L3.79492 22.1324V12.9185C3.79492 11.7261 2.81934 10.7505 1.62695 10.7505C1.03076 10.7505 0.542969 11.2384 0.542969 11.8345V24.3003L6.50481 33.7478V36.4578H13.5507L12.4667 27.5729L9.38835 20.6783C9.02377 19.8617 8.33718 19.2381 7.46219 19.4224C6.58712 19.6067 6.06522 20.4659 6.20628 21.3487L8.62212 29.6817" stroke="#0036BC" stroke-miterlimit="22.9256"/>
<path d="M7.04883 19.5724V15.8696C7.04883 14.6772 6.07324 13.7017 4.88086 13.7017C4.28467 13.7017 3.79688 14.1896 3.79688 14.7856" stroke="#0036BC" stroke-miterlimit="22.9256"/>
<path d="M29.5896 25.5151L33.209 22.1324V12.9185C33.209 11.7261 34.1846 10.7505 35.377 10.7505C35.9731 10.7505 36.4609 11.2384 36.4609 11.8345V24.3003L34.3477 27.649M33.7693 28.5657L33.1908 29.4824M32.6122 30.3992L30.499 33.7478V36.4578H23.4531L24.5371 27.5729L27.6155 20.6783C27.9801 19.8617 28.6667 19.2381 29.5416 19.4224C30.4167 19.6067 30.9386 20.4659 30.7976 21.3487L28.3817 29.6817" stroke="#0036BC" stroke-miterlimit="22.9256"/>
<path d="M29.9531 19.5724V15.8696C29.9531 14.6772 30.9287 13.7017 32.1211 13.7017C32.7173 13.7017 33.2051 14.1896 33.2051 14.7856" stroke="#0036BC" stroke-miterlimit="22.9256"/>
<path d="M13.9284 2.226C15.1588 1.17605 16.7548 0.541992 18.499 0.541992C22.3904 0.541992 25.5449 3.69653 25.5449 7.58789C25.5449 11.4792 22.3904 14.6338 18.499 14.6338C14.6077 14.6338 11.4531 11.4792 11.4531 7.58789C11.4531 5.84369 12.0873 4.24777 13.1371 3.01731" stroke="#0036BC" stroke-miterlimit="22.9256"/>
<path d="M13.9882 12.998C13.4208 13.7313 13.082 14.6492 13.082 15.6426V21.0626C13.082 23.4474 15.0333 25.3985 17.418 25.3985H19.5859C21.9706 25.3985 23.9219 23.4474 23.9219 21.0626V15.6426C23.9219 14.6492 23.5831 13.7313 23.0157 12.9981" stroke="#0036BC" stroke-miterlimit="22.9256"/>
<path d="M23.1085 9.2203C23.1085 8.61811 22.5423 8.12988 21.8438 8.12988C21.1454 8.12988 20.5792 8.61804 20.5792 9.2203M16.4238 9.2203C16.4238 8.61811 15.8576 8.12988 15.1592 8.12988C14.4607 8.12988 13.8945 8.61804 13.8945 9.2203" stroke="#0036BC" stroke-miterlimit="22.9256"/>
<path d="M18.5 10.8398V9.75586" stroke="#0036BC" stroke-miterlimit="22.9256"/>
<path d="M13.082 15.6426C13.082 18.7152 17.7387 22.7193 23.9219 21.0626" stroke="#0036BC" stroke-miterlimit="22.9256"/>
<path d="M18.6643 0.600586C18.0268 1.32194 17.0881 2.64093 17.1303 3.70136C17.2052 5.58641 20.317 5.56639 19.8151 3.17664" stroke="#0036BC" stroke-miterlimit="22.9256"/>
<path d="M21.7539 17.2686V16.1846M21.7539 19.4365V18.3525" stroke="#0036BC" stroke-miterlimit="22.9256"/>
</g>
<defs>
<clipPath id="clip0_395_23257">
<rect width="37" height="37" fill="white"/>
</clipPath>
</defs>
</svg>
