<svg width="37" height="36" viewBox="0 0 37 36" fill="none" xmlns="http://www.w3.org/2000/svg">
<path d="M16.3049 21.7154C15.8912 21.7154 15.4926 21.5449 15.1984 21.2382L11.025 16.8953C10.4136 16.2597 10.4136 15.2282 11.025 14.5925C11.6358 13.9563 12.627 13.9563 13.2379 14.5925L16.1353 17.6076L24.4426 6.08104C24.9621 5.36121 25.9439 5.21626 26.6336 5.75532C27.3254 6.29493 27.4657 7.31604 26.9471 8.03533L17.5569 21.064C17.2851 21.4418 16.8683 21.6779 16.416 21.7111C16.379 21.7138 16.3414 21.7154 16.3049 21.7154Z" fill="white"/>
<ellipse cx="18.225" cy="18" rx="18.225" ry="18" fill="#EA340C"/>
<path d="M12.0859 24.4073L25.3981 11.5938" stroke="white" stroke-width="3.5" stroke-linecap="round" stroke-linejoin="round"/>
<path d="M25.3981 24.4073L12.0859 11.5938" stroke="white" stroke-width="3.5" stroke-linecap="round" stroke-linejoin="round"/>
<path d="M25.3981 24.4073L12.0859 11.5938" stroke="white" stroke-width="3.5" stroke-linecap="round" stroke-linejoin="round"/>
<path d="M25.3981 24.4073L12.0859 11.5938" stroke="white" stroke-width="3.5" stroke-linecap="round" stroke-linejoin="round"/>
</svg>
