<svg width="84" height="84" viewBox="0 0 84 84" fill="none" xmlns="http://www.w3.org/2000/svg">
<path fill-rule="evenodd" clip-rule="evenodd" d="M21 47.25C12.3086 47.25 5.25 54.3086 5.25 63C5.25 71.6914 12.3086 78.75 21 78.75C29.6914 78.75 36.75 71.6914 36.75 63C36.75 54.3086 29.6914 47.25 21 47.25ZM10.5 44.814C13.5896 43.0238 17.1754 42 21 42C32.5894 42 42 51.4106 42 63C42 66.8246 40.9762 70.4104 39.186 73.5H68.25C74.0486 73.5 78.75 68.7986 78.75 63V15.75C78.75 9.95137 74.0486 5.25 68.25 5.25V23.4832C68.25 25.6594 66.7958 27.5704 64.6984 28.1531C62.5984 28.7333 60.3697 27.8434 59.2489 25.9744L59.2436 25.9691C58.9286 25.4441 58.3616 25.1213 57.75 25.1213C57.1384 25.1213 56.5714 25.4441 56.2564 25.9691L56.2511 25.9744C55.1303 27.8434 52.9016 28.7333 50.8016 28.1531C48.7042 27.5704 47.25 25.6594 47.25 23.4832V5.25H21C15.2014 5.25 10.5 9.95137 10.5 15.75V44.814ZM21 59.2882L19.1441 57.4324C18.1204 56.406 16.4561 56.406 15.4324 57.4324C14.406 58.4561 14.406 60.1204 15.4324 61.1441L17.2882 63L15.4324 64.8559C14.406 65.8796 14.406 67.5439 15.4324 68.5676C16.4561 69.594 18.1204 69.594 19.1441 68.5676L21 66.7118L22.8559 68.5676C23.8796 69.594 25.5439 69.594 26.5676 68.5676C27.594 67.5439 27.594 65.8796 26.5676 64.8559L24.7118 63L26.5676 61.1441C27.594 60.1204 27.594 58.4561 26.5676 57.4324C25.5439 56.406 23.8796 56.406 22.8559 57.4324L21 59.2882ZM65.625 57.75H57.75C56.301 57.75 55.125 58.926 55.125 60.375C55.125 61.824 56.301 63 57.75 63H65.625C67.074 63 68.25 61.824 68.25 60.375C68.25 58.926 67.074 57.75 65.625 57.75ZM65.625 47.25H57.75C56.301 47.25 55.125 48.426 55.125 49.875C55.125 51.324 56.301 52.5 57.75 52.5H65.625C67.074 52.5 68.25 51.324 68.25 49.875C68.25 48.426 67.074 47.25 65.625 47.25ZM52.5 5.25H63V22.2469C61.6875 20.7506 59.7791 19.8713 57.75 19.8713C55.7209 19.8713 53.8125 20.7506 52.5 22.2469V5.25Z" fill="#FF0000"/>
</svg>
