<svg width="12" height="13" viewBox="0 0 12 13" fill="none" xmlns="http://www.w3.org/2000/svg">
<path d="M3.41797 11.0146C3.41797 11.7044 3.97751 12.264 4.66738 12.264C5.35724 12.264 5.91677 11.7044 5.91677 11.0146C5.91677 10.3247 5.35724 9.76514 4.66738 9.76514C3.97751 9.76514 3.41797 10.3247 3.41797 11.0146ZM5.10046 11.0146C5.10046 11.2522 4.905 11.4476 4.66738 11.4476C4.42977 11.4476 4.23431 11.2522 4.23431 11.0146C4.23431 10.7769 4.42977 10.5815 4.66738 10.5815C4.905 10.5815 5.10046 10.7769 5.10046 11.0146Z" fill="white"/>
<path d="M8.15234 11.0146C8.15234 11.7044 8.71191 12.264 9.40176 12.264C10.0878 12.264 10.6512 11.7044 10.6512 11.0146C10.6512 10.3247 10.0878 9.76514 9.40176 9.76514C8.71191 9.76514 8.15234 10.3247 8.15234 11.0146ZM9.831 11.0146C9.831 11.2522 9.63938 11.4476 9.40176 11.4476C9.16031 11.4476 8.96868 11.2522 8.96868 11.0146C8.96868 10.7769 9.16031 10.5815 9.40176 10.5815C9.63938 10.5815 9.831 10.7769 9.831 11.0146Z" fill="white"/>
<path d="M0.406269 0.816333H1.68249L3.18868 8.17864C3.32283 8.83786 3.90537 9.31692 4.5799 9.31692H9.71552C10.3862 9.31692 10.9726 8.83785 11.1067 8.17865L11.9614 4.00118C12.0457 3.58342 11.9384 3.15034 11.6701 2.82075C11.398 2.48732 10.9956 2.29953 10.5663 2.29953H2.82077L2.41836 0.325759C2.38002 0.137968 2.21138 0 2.01592 0H0.406269C0.183978 0 0 0.183955 0 0.410086C0 0.636191 0.183978 0.816333 0.406269 0.816333ZM5.33108 6.91007V4.70252C5.33108 4.47641 5.5112 4.29627 5.73733 4.29627C5.96347 4.29627 6.14742 4.47641 6.14742 4.70252V6.91007C6.14742 7.1362 5.96347 7.32016 5.73733 7.32016C5.5112 7.32016 5.33108 7.1362 5.33108 6.91007ZM8.73822 6.91007C8.73822 7.1362 8.55424 7.32016 8.32814 7.32016C8.102 7.32016 7.91805 7.1362 7.91805 6.91007V4.70252C7.91805 4.47641 8.102 4.29627 8.32814 4.29627C8.55424 4.29627 8.73822 4.47641 8.73822 4.70252V6.91007Z" fill="white"/>
</svg>
