<svg width="34" height="34" viewBox="0 0 34 34" fill="none" xmlns="http://www.w3.org/2000/svg">
<path d="M9.47656 30.536C9.47656 32.4485 11.0278 33.9998 12.9403 33.9998C14.8528 33.9998 16.404 32.4485 16.404 30.536C16.404 28.6235 14.8528 27.0723 12.9403 27.0723C11.0278 27.0723 9.47656 28.6235 9.47656 30.536ZM14.1409 30.536C14.1409 31.1948 13.5991 31.7366 12.9403 31.7366C12.2816 31.7366 11.7397 31.1948 11.7397 30.536C11.7397 29.8773 12.2816 29.3354 12.9403 29.3354C13.5991 29.3354 14.1409 29.8773 14.1409 30.536Z" fill="#888888"/>
<path d="M22.5977 30.536C22.5977 32.4485 24.1489 33.9998 26.0614 33.9998C27.9633 33.9998 29.5252 32.4485 29.5252 30.536C29.5252 28.6235 27.9633 27.0723 26.0614 27.0723C24.1489 27.0723 22.5977 28.6235 22.5977 30.536ZM27.2514 30.536C27.2514 31.1948 26.7202 31.7366 26.0614 31.7366C25.392 31.7366 24.8608 31.1948 24.8608 30.536C24.8608 29.8773 25.392 29.3354 26.0614 29.3354C26.7202 29.3354 27.2514 29.8773 27.2514 30.536Z" fill="#888888"/>
<path d="M1.1263 2.26313H4.66439L8.84 22.6737C9.21192 24.5013 10.8269 25.8294 12.6969 25.8294H26.9344C28.7938 25.8294 30.4194 24.5013 30.7913 22.6737L33.1606 11.0925C33.3944 9.93434 33.0969 8.73372 32.3531 7.81998C31.5987 6.89562 30.4831 6.375 29.2931 6.375H7.82004L6.70443 0.903104C6.59815 0.382489 6.13064 0 5.58876 0H1.1263C0.510042 0 0 0.509979 0 1.13689C0 1.76372 0.510042 2.26313 1.1263 2.26313ZM14.7794 19.1568V13.0368C14.7794 12.41 15.2787 11.9106 15.9057 11.9106C16.5326 11.9106 17.0425 12.41 17.0425 13.0368V19.1568C17.0425 19.7838 16.5326 20.2937 15.9057 20.2937C15.2787 20.2937 14.7794 19.7838 14.7794 19.1568ZM24.225 19.1568C24.225 19.7838 23.715 20.2937 23.0882 20.2937C22.4613 20.2937 21.9513 19.7838 21.9513 19.1568V13.0368C21.9513 12.41 22.4613 11.9106 23.0882 11.9106C23.715 11.9106 24.225 12.41 24.225 13.0368V19.1568Z" fill="#888888"/>
</svg>
