<svg width="17" height="17" viewBox="0 0 17 17" fill="none" xmlns="http://www.w3.org/2000/svg">
<path d="M7.80575 13.8125H5.31242C4.87325 13.8125 4.48367 13.7983 4.13659 13.7487C2.27367 13.5433 1.77075 12.665 1.77075 10.2708V6.72917C1.77075 4.335 2.27367 3.45667 4.13659 3.25125C4.48367 3.20167 4.87325 3.1875 5.31242 3.1875H7.76325" stroke="#0036BC" stroke-width="1.0625" stroke-linecap="round" stroke-linejoin="round"/>
<path d="M10.6392 3.1875H11.6875C12.1267 3.1875 12.5162 3.20167 12.8633 3.25125C14.7262 3.45667 15.2292 4.335 15.2292 6.72917V10.2708C15.2292 12.665 14.7262 13.5433 12.8633 13.7487C12.5162 13.7983 12.1267 13.8125 11.6875 13.8125H10.6392" stroke="#0036BC" stroke-width="1.0625" stroke-linecap="round" stroke-linejoin="round"/>
<path d="M10.625 1.41602V15.5827" stroke="#0036BC" stroke-width="1.0625" stroke-linecap="round" stroke-linejoin="round"/>
<path d="M5.66675 6.02148V10.9798" stroke="#0036BC" stroke-width="1.0625" stroke-linecap="round" stroke-linejoin="round"/>
</svg>
