<svg width="49" height="47" viewBox="0 0 49 47" fill="none" xmlns="http://www.w3.org/2000/svg">
<path d="M21.6413 4.82227C16.3013 4.82227 12.0854 9.32597 12.0854 14.6741V14.9556C12.0854 16.0815 11.2423 17.2074 10.118 17.4889C6.18324 18.3334 3.93479 22.5556 5.05901 26.4963C5.90218 29.5926 8.71275 31.563 12.0854 31.563H14.6149C16.0202 31.563 17.1444 32.4074 17.1444 34.0963C17.1444 35.5037 16.3013 36.6296 14.6149 36.6296H12.0854C5.34007 36.6296 0 31.2815 0 24.5259C0 19.7408 2.81056 15.2371 7.30747 13.2667C8.15063 5.38524 15.177 -0.525869 23.3277 0.0370937C27.8246 0.600056 32.0404 3.13339 34.5699 7.3556C42.4395 7.63708 48.9038 14.3926 48.6228 22.2741C48.3417 30.1556 41.8774 36.3482 34.0078 36.3482C32.6025 36.3482 31.4783 35.5037 31.4783 33.8148C31.4783 32.4074 32.3215 31.2815 34.0078 31.2815C39.3479 31.2815 43.8448 26.7778 43.8448 21.4297C43.8448 16.0815 39.3479 11.5778 34.0078 11.5778C33.7268 11.5778 33.4457 11.5778 33.1646 11.5778C32.3215 11.5778 31.1973 11.0149 30.6351 10.1704C28.9488 7.07412 25.5761 4.82227 21.6413 4.82227ZM22.4845 17.7704C23.3277 16.926 25.014 16.926 25.8572 17.7704L30.6351 22.5556C31.4783 23.4 31.4783 25.0889 30.6351 25.9334C29.792 26.7778 28.1056 26.7778 27.2625 25.9334L26.4193 25.0889V43.6667C26.4193 45.0741 25.5761 46.2 23.8898 46.2C22.4845 46.2 21.3603 45.3556 21.3603 43.6667V25.0889L21.0792 25.9334C20.2361 26.7778 18.5497 26.7778 17.7066 25.9334C16.8634 25.0889 16.8634 23.4 17.7066 22.5556L22.4845 17.7704Z" fill="#0036BC"/>
</svg>
