<svg width="105" height="105" viewBox="0 0 105 105" fill="none" xmlns="http://www.w3.org/2000/svg">
<path d="M97.7812 55.4532L88.2 42.6563L85.0828 34.8633C84.8371 34.2559 84.4151 33.7359 83.8712 33.3704C83.3274 33.0049 82.6865 32.8106 82.0312 32.8125H73.8281V27.8907C73.8281 25.2799 72.791 22.7761 70.945 20.9301C69.0989 19.084 66.5951 18.0469 63.9844 18.0469H59.4727C59.2592 18.0482 59.0496 18.1043 58.864 18.2098C58.6784 18.3153 58.523 18.4667 58.4127 18.6494C58.3024 18.8322 58.2409 19.0402 58.234 19.2536C58.2271 19.4669 58.2751 19.6785 58.3734 19.868C60.3162 23.6468 61.0765 27.923 60.5555 32.1399C59.916 37.5509 57.2299 42.5119 53.0483 46.0051C48.8667 49.4982 43.5068 51.2586 38.0684 50.9248C32.63 50.5911 27.5255 48.1886 23.8024 44.2104C20.0793 40.2322 18.0199 34.9799 18.0469 29.5313C18.0485 26.1693 18.8528 22.8564 20.393 19.868C20.4919 19.6773 20.5399 19.4642 20.5323 19.2495C20.5247 19.0347 20.4617 18.8256 20.3494 18.6424C20.2372 18.4592 20.0795 18.3081 19.8917 18.2037C19.7038 18.0994 19.4922 18.0454 19.2773 18.0469H16.4062C13.7955 18.0469 11.2917 19.084 9.44567 20.9301C7.59961 22.7761 6.5625 25.2799 6.5625 27.8907V63.9844C6.5625 66.5951 7.59961 69.0989 9.44567 70.945C11.2917 72.791 13.7955 73.8282 16.4062 73.8282H18.0469C18.4608 76.5426 19.8336 79.0189 21.9164 80.8082C23.9992 82.5974 26.6542 83.5812 29.4 83.5812C32.1458 83.5812 34.8008 82.5974 36.8836 80.8082C38.9664 79.0189 40.3392 76.5426 40.7531 73.8282H67.3969C67.8108 76.5426 69.1836 79.0189 71.2664 80.8082C73.3492 82.5974 76.0042 83.5812 78.75 83.5812C81.4958 83.5812 84.1508 82.5974 86.2336 80.8082C88.3164 79.0189 89.6892 76.5426 90.1031 73.8282H95.1562C96.0265 73.8282 96.8611 73.4825 97.4764 72.8671C98.0918 72.2517 98.4375 71.4171 98.4375 70.5469V57.4219C98.4375 56.7119 98.2072 56.0211 97.7812 55.4532ZM29.5312 77.1094C28.5158 77.1065 27.5261 76.7897 26.6978 76.2022C25.8695 75.6148 25.2432 74.7855 24.9047 73.8282H34.1414C33.8039 74.7829 33.18 75.6103 32.355 76.1975C31.53 76.7847 30.5439 77.1032 29.5312 77.1094ZM78.75 77.1094C77.7345 77.1065 76.7448 76.7897 75.9165 76.2022C75.0882 75.6148 74.4619 74.7855 74.1234 73.8282H83.3602C83.0226 74.7829 82.3988 75.6103 81.5738 76.1975C80.7487 76.7847 79.7626 77.1032 78.75 77.1094ZM91.875 67.2657H73.2375C73.6195 66.2134 73.8193 65.1038 73.8281 63.9844V39.375H79.8164L82.2773 45.511C82.3855 45.7803 82.529 46.0341 82.7039 46.2657L91.875 58.5211V67.2657Z" fill="#2EC447"/>
<path d="M39.375 44.2969C42.2954 44.2969 45.1501 43.4309 47.5783 41.8084C50.0065 40.186 51.8991 37.8799 53.0167 35.1818C54.1342 32.4838 54.4266 29.5149 53.8569 26.6506C53.2872 23.7864 51.8809 21.1554 49.8159 19.0904C47.7509 17.0254 45.1199 15.6191 42.2556 15.0493C39.3914 14.4796 36.4225 14.772 33.7244 15.8896C31.0264 17.0072 28.7203 18.8997 27.0978 21.3279C25.4754 23.7561 24.6094 26.6109 24.6094 29.5313C24.6094 33.4473 26.165 37.203 28.9341 39.9721C31.7032 42.7412 35.4589 44.2969 39.375 44.2969ZM32.1398 27.218C32.4446 26.9129 32.8065 26.6709 33.2048 26.5057C33.6031 26.3406 34.0301 26.2556 34.4613 26.2556C34.8925 26.2556 35.3195 26.3406 35.7179 26.5057C36.1162 26.6709 36.4781 26.9129 36.7828 27.218L37.7508 28.1859L42 23.9367C42.6157 23.321 43.4508 22.9751 44.3215 22.9751C45.1922 22.9751 46.0273 23.321 46.643 23.9367C47.2587 24.5524 47.6046 25.3875 47.6046 26.2582C47.6046 27.1289 47.2587 27.964 46.643 28.5797L40.0805 35.1422C39.7757 35.4473 39.4138 35.6893 39.0155 35.8544C38.6172 36.0195 38.1902 36.1045 37.759 36.1045C37.3278 36.1045 36.9008 36.0195 36.5025 35.8544C36.1041 35.6893 35.7422 35.4473 35.4375 35.1422L32.1563 31.8609C31.8501 31.5573 31.6068 31.1963 31.4403 30.7985C31.2737 30.4007 31.1872 29.9741 31.1857 29.5429C31.1842 29.1117 31.2677 28.6844 31.4314 28.2855C31.5951 27.8865 31.8358 27.5238 32.1398 27.218Z" fill="#2EC447"/>
</svg>
