<svg width="28" height="28" viewBox="0 0 28 28" fill="none" xmlns="http://www.w3.org/2000/svg">
<path d="M12.8333 2.33398H10.5C4.66668 2.33398 2.33334 4.66732 2.33334 10.5007V17.5007C2.33334 23.334 4.66668 25.6673 10.5 25.6673H17.5C23.3333 25.6673 25.6667 23.334 25.6667 17.5007V15.1673" stroke="#0036BC" stroke-width="1.75" stroke-linecap="round" stroke-linejoin="round"/>
<path d="M18.7132 3.52412L9.51986 12.7174C9.16986 13.0674 8.81986 13.7558 8.74986 14.2574L8.24819 17.7691C8.06153 19.0408 8.95986 19.9274 10.2315 19.7524L13.7432 19.2508C14.2332 19.1808 14.9215 18.8308 15.2832 18.4808L24.4765 9.28745C26.0632 7.70078 26.8099 5.85745 24.4765 3.52412C22.1432 1.19078 20.2999 1.93745 18.7132 3.52412Z" stroke="#0036BC" stroke-width="1.75" stroke-miterlimit="10" stroke-linecap="round" stroke-linejoin="round"/>
<path d="M17.3949 4.8418C18.1766 7.63013 20.3582 9.8118 23.1582 10.6051" stroke="#0036BC" stroke-width="1.75" stroke-miterlimit="10" stroke-linecap="round" stroke-linejoin="round"/>
</svg>
