<svg width="38" height="36" viewBox="0 0 38 36" fill="none" xmlns="http://www.w3.org/2000/svg">
<g clip-path="url(#clip0_63_3269)">
<path d="M39.2823 15.0391H25.7779C25.1825 15.0391 24.7004 15.5172 24.7004 16.1078V20.3898C24.7004 20.9805 25.1825 21.4586 25.7779 21.4586H33.3843C32.5549 23.6031 30.9954 25.3961 29.0176 26.5352L32.2572 32.1039C37.4533 29.1227 40.5299 23.8844 40.5299 18.0273C40.5299 17.1906 40.4661 16.593 40.3456 15.925C40.2464 15.4117 39.7998 15.0391 39.2823 15.0391Z" fill="#167EE6"/>
<path d="M23.9775 27.8859C20.2558 27.8859 17.0091 25.868 15.2653 22.8867L9.65088 26.093C12.5077 31.0078 17.8598 34.3125 23.9775 34.3125C26.9832 34.3125 29.8117 33.5109 32.2573 32.1117V32.1047L29.0177 26.5359C27.529 27.3937 25.8135 27.8859 23.9775 27.8859Z" fill="#12B347"/>
<path d="M32.2503 32.1109V32.1039L29.0106 26.5352C27.5291 27.3859 25.8136 27.8852 23.9775 27.8852V34.3117C26.9832 34.3117 29.8117 33.5102 32.2503 32.1109Z" fill="#0F993E"/>
<path d="M13.9043 17.8938C13.9043 16.0727 14.4076 14.3711 15.2654 12.9016L9.65096 9.69531C8.23318 12.107 7.42505 14.9055 7.42505 17.8938C7.42505 20.882 8.23318 23.6805 9.65096 26.0922L15.2654 22.8859C14.4005 21.4164 13.9043 19.7148 13.9043 17.8938Z" fill="#FFD500"/>
<path d="M23.9775 7.90313C26.4019 7.90313 28.6349 8.76094 30.3717 10.1813C30.8041 10.5328 31.4279 10.5047 31.8178 10.118L34.8731 7.0875C35.3197 6.64453 35.2843 5.92031 34.8093 5.5125C31.8958 2.99531 28.1032 1.47656 23.9775 1.47656C17.8598 1.47656 12.5077 4.78125 9.65088 9.69609L15.2653 12.9023C17.0091 9.92109 20.2558 7.90313 23.9775 7.90313Z" fill="#FF4B26"/>
<path d="M30.3717 10.1813C30.8041 10.5328 31.428 10.5047 31.8178 10.118L34.8732 7.0875C35.3198 6.64453 35.2843 5.92031 34.8094 5.5125C31.8958 2.99531 28.1033 1.47656 23.9775 1.47656V7.90313C26.4019 7.90313 28.6349 8.75391 30.3717 10.1813Z" fill="#D93F21"/>
</g>
<defs>
<clipPath id="clip0_63_3269">
<rect width="37.6317" height="36" fill="white"/>
</clipPath>
</defs>
</svg>
