<svg width="13" height="13" viewBox="0 0 13 13" fill="none" xmlns="http://www.w3.org/2000/svg">
<g clip-path="url(#clip0_290_11442)">
<path d="M5.24875 10.8331H2.84375C2.17154 10.8331 1.625 10.2866 1.625 9.61438V6.22896H0.677083C0.303875 6.22896 0 5.92509 0 5.55188C0 5.3623 0.0807083 5.18084 0.221542 5.05463L5.40692 0.111922C5.564 -0.037578 5.81046 -0.0370364 5.96754 0.111922L7.3125 1.39188V0.947714C7.3125 0.723464 7.4945 0.541464 7.71875 0.541464H9.34375C9.568 0.541464 9.75 0.723464 9.75 0.947714V3.71563L10.7407 4.66246C10.9027 4.81738 10.9086 5.07467 10.7532 5.23663C10.5977 5.39913 10.3404 5.40455 10.1785 5.24963L9.06262 4.18255C8.98246 4.10617 8.9375 4.00001 8.9375 3.88896V1.35396H8.125V2.3398C8.125 2.5023 8.02804 2.64909 7.87854 2.71301C7.72904 2.77638 7.55571 2.74605 7.43817 2.63392L5.6875 0.967214L1.01942 5.41646H2.03125C2.2555 5.41646 2.4375 5.59846 2.4375 5.82271V9.61438C2.4375 9.83863 2.6195 10.0206 2.84375 10.0206H5.24875C5.473 10.0206 5.655 10.2026 5.655 10.4269C5.655 10.6511 5.473 10.8331 5.24875 10.8331ZM0.777292 5.64721L0.7735 5.65101C0.774583 5.64992 0.776208 5.64884 0.777292 5.64721Z" fill="#0036BC"/>
<path d="M12.0513 9.47908C11.9473 9.47908 11.8433 9.43954 11.7642 9.35992L9.59755 7.19325C9.43884 7.03454 9.43884 6.77725 9.59755 6.61854C9.75626 6.45983 10.0135 6.45983 10.1723 6.61854L12.3389 8.78521C12.4976 8.94392 12.4976 9.20121 12.3389 9.35992C12.2593 9.43954 12.1553 9.47908 12.0513 9.47908Z" fill="#0036BC"/>
<path d="M7.7196 12.5041C7.47693 12.5041 7.23427 12.412 7.04956 12.2268L6.73214 11.9094C6.36272 11.54 6.36272 10.9387 6.73214 10.5688L10.1408 7.16005C10.2996 7.00134 10.5568 7.00134 10.7156 7.16005C10.8743 7.31876 10.8743 7.57605 10.7156 7.73476L7.30685 11.1435C7.25431 11.1965 7.25431 11.2821 7.30685 11.3352L7.62427 11.6526C7.67735 11.7057 7.76293 11.7057 7.81602 11.6526L11.2247 8.24392C11.3834 8.08521 11.6407 8.08521 11.7994 8.24392C11.9581 8.40263 11.9581 8.65992 11.7994 8.81863L8.39072 12.2273C8.20493 12.412 7.96227 12.5041 7.7196 12.5041Z" fill="#0036BC"/>
<path d="M10.9686 8.39575C10.8646 8.39575 10.7606 8.35621 10.6815 8.27658C10.5228 8.11788 10.5228 7.86058 10.6815 7.70188L11.7649 6.61854C11.9236 6.45983 12.1809 6.45983 12.3396 6.61854C12.4983 6.77725 12.4983 7.03454 12.3396 7.19325L11.2562 8.27658C11.1766 8.35621 11.0726 8.39575 10.9686 8.39575Z" fill="#0036BC"/>
<path d="M6.3651 12.9999C6.2611 12.9999 6.1571 12.9604 6.07802 12.8808C5.91931 12.722 5.91931 12.4648 6.07802 12.306L6.89052 11.4935C7.04922 11.3348 7.30652 11.3348 7.46522 11.4935C7.62393 11.6523 7.62393 11.9095 7.46522 12.0683L6.65272 12.8808C6.5731 12.9604 6.4691 12.9999 6.3651 12.9999Z" fill="#0036BC"/>
<path d="M12.593 7.85425C12.489 7.85425 12.385 7.81471 12.3059 7.73508L11.2225 6.65175C11.0638 6.49304 11.0638 6.23575 11.2225 6.07704C11.3813 5.91833 11.6385 5.91833 11.7973 6.07704L12.8806 7.16037C13.0393 7.31908 13.0393 7.57637 12.8806 7.73508C12.801 7.81471 12.697 7.85425 12.593 7.85425Z" fill="#0036BC"/>
</g>
<defs>
<clipPath id="clip0_290_11442">
<rect width="13" height="13" fill="white"/>
</clipPath>
</defs>
</svg>
