<svg width="26" height="26" viewBox="0 0 26 26" fill="none" xmlns="http://www.w3.org/2000/svg">
<rect x="0.5" y="0.5" width="25" height="25" rx="3.5" stroke="#313A43"/>
<path d="M13.1067 12.2454C13.04 12.2387 12.96 12.2387 12.8867 12.2454C11.3 12.192 10.04 10.892 10.04 9.29203C10.04 7.6587 11.36 6.33203 13 6.33203C14.6333 6.33203 15.96 7.6587 15.96 9.29203C15.9533 10.892 14.6933 12.192 13.1067 12.2454Z" stroke="#313A43" stroke-width="1.24231" stroke-linecap="round" stroke-linejoin="round"/>
<path d="M9.77343 14.706C8.1601 15.786 8.1601 17.546 9.77343 18.6193C11.6068 19.846 14.6134 19.846 16.4468 18.6193C18.0601 17.5393 18.0601 15.7793 16.4468 14.706C14.6201 13.486 11.6134 13.486 9.77343 14.706Z" stroke="#313A43" stroke-width="1.24231" stroke-linecap="round" stroke-linejoin="round"/>
</svg>
