<svg width="27" height="27" viewBox="0 0 27 27" fill="none" xmlns="http://www.w3.org/2000/svg">
<g clip-path="url(#clip0_290_11384)">
<path d="M26.6028 4.82319V10.2506C26.6028 10.6371 26.2895 10.9503 25.903 10.9503H21.5017C21.1153 10.9503 20.802 10.6371 20.802 10.2506V7.3218C20.802 7.21738 20.746 7.12093 20.6554 7.06909L19.3271 6.30972C19.2403 6.2601 19.2468 6.1328 19.3382 6.0923L20.6288 5.52055C20.7341 5.47388 20.802 5.36957 20.802 5.2544V1.09524C20.802 0.708803 21.1153 0.395508 21.5017 0.395508H25.903C26.2895 0.395508 26.6028 0.708803 26.6028 1.09524V2.90851" stroke="white" stroke-miterlimit="10" stroke-linecap="round" stroke-linejoin="round"/>
<path d="M22.3613 2.24316H23.4155" stroke="white" stroke-miterlimit="10" stroke-linecap="round" stroke-linejoin="round"/>
<path d="M24.0547 8.63428H25.1088" stroke="white" stroke-miterlimit="10" stroke-linecap="round" stroke-linejoin="round"/>
<path d="M22.3613 3.7793H25.1021" stroke="white" stroke-miterlimit="10" stroke-linecap="round" stroke-linejoin="round"/>
<path d="M22.3613 5.23975H25.1021" stroke="white" stroke-miterlimit="10" stroke-linecap="round" stroke-linejoin="round"/>
<path d="M22.3613 6.76514H25.1021" stroke="white" stroke-miterlimit="10" stroke-linecap="round" stroke-linejoin="round"/>
<path d="M13.9941 6.14355H9.98633C9.49121 6.14355 9.08984 5.74219 9.08984 5.24707C9.08984 4.75195 9.49121 4.35059 9.98633 4.35059H13.9941C14.4893 4.35059 14.8906 4.75195 14.8906 5.24707C14.8906 5.74219 14.4892 6.14355 13.9941 6.14355Z" stroke="white" stroke-miterlimit="10" stroke-linecap="round" stroke-linejoin="round"/>
<path d="M10.0391 17.7552V20.0126C10.0391 21.0903 10.9126 21.9638 11.9902 21.9638C13.0679 21.9638 13.9414 21.0903 13.9414 20.0126V10.8916" stroke="white" stroke-miterlimit="10" stroke-linecap="round" stroke-linejoin="round"/>
<path d="M10.0391 10.8916V15.8243" stroke="white" stroke-miterlimit="10" stroke-linecap="round" stroke-linejoin="round"/>
<path d="M13.9414 8.84719V6.14355H10.0391V8.858" stroke="white" stroke-miterlimit="10" stroke-linecap="round" stroke-linejoin="round"/>
<path d="M25.1955 26.6045H1.80259C1.02492 26.6045 0.394531 25.9741 0.394531 25.1964V24.5787C0.394531 24.4161 0.526367 24.2842 0.689053 24.2842H26.309C26.4716 24.2842 26.6035 24.416 26.6035 24.5787V25.1964C26.6035 25.9741 25.9731 26.6045 25.1955 26.6045Z" stroke="white" stroke-miterlimit="10" stroke-linecap="round" stroke-linejoin="round"/>
<path d="M18.5022 10.7988H8.06641C7.94992 10.7988 7.85547 10.7044 7.85547 10.5879V9.2168C7.85547 9.10031 7.94992 9.00586 8.06641 9.00586H18.5022C18.6187 9.00586 18.7131 9.10031 18.7131 9.2168V10.5879C18.7131 10.7044 18.6187 10.7988 18.5022 10.7988Z" stroke="white" stroke-miterlimit="10" stroke-linecap="round" stroke-linejoin="round"/>
<path d="M17.4355 10.7988H15.8535V24.2988H17.4355V10.7988Z" stroke="white" stroke-miterlimit="10" stroke-linecap="round" stroke-linejoin="round"/>
<path d="M10.1758 12.6177H13.8009" stroke="white" stroke-miterlimit="10" stroke-linecap="round" stroke-linejoin="round"/>
</g>
<defs>
<clipPath id="clip0_290_11384">
<rect width="27" height="27" fill="white"/>
</clipPath>
</defs>
</svg>
