<svg width="27" height="27" viewBox="0 0 27 27" fill="none" xmlns="http://www.w3.org/2000/svg">
<path d="M26.6028 4.82221V10.2496C26.6028 10.6361 26.2895 10.9494 25.903 10.9494H21.5017C21.1153 10.9494 20.802 10.6361 20.802 10.2496V7.32082C20.802 7.21641 20.746 7.11996 20.6554 7.06812L19.3271 6.30874C19.2403 6.25912 19.2468 6.13182 19.3382 6.09132L20.6288 5.51957C20.7341 5.4729 20.802 5.3686 20.802 5.25342V1.09426C20.802 0.707826 21.1153 0.394531 21.5017 0.394531H25.903C26.2895 0.394531 26.6028 0.707826 26.6028 1.09426V2.90753" stroke="white" stroke-miterlimit="10" stroke-linecap="round" stroke-linejoin="round"/>
<path d="M22.3613 2.24219H23.4155" stroke="white" stroke-miterlimit="10" stroke-linecap="round" stroke-linejoin="round"/>
<path d="M24.0547 8.63281H25.1088" stroke="white" stroke-miterlimit="10" stroke-linecap="round" stroke-linejoin="round"/>
<path d="M22.3613 3.77734H25.1021" stroke="white" stroke-miterlimit="10" stroke-linecap="round" stroke-linejoin="round"/>
<path d="M22.3613 5.23828H25.1021" stroke="white" stroke-miterlimit="10" stroke-linecap="round" stroke-linejoin="round"/>
<path d="M22.3613 6.76367H25.1021" stroke="white" stroke-miterlimit="10" stroke-linecap="round" stroke-linejoin="round"/>
<path d="M13.9941 6.14258H9.98633C9.49121 6.14258 9.08984 5.74122 9.08984 5.24609C9.08984 4.75097 9.49121 4.34961 9.98633 4.34961H13.9941C14.4893 4.34961 14.8906 4.75097 14.8906 5.24609C14.8906 5.74122 14.4892 6.14258 13.9941 6.14258Z" stroke="white" stroke-miterlimit="10" stroke-linecap="round" stroke-linejoin="round"/>
<path d="M10.0391 17.7542V20.0117C10.0391 21.0893 10.9126 21.9628 11.9902 21.9628C13.0679 21.9628 13.9414 21.0893 13.9414 20.0117V10.8906" stroke="white" stroke-miterlimit="10" stroke-linecap="round" stroke-linejoin="round"/>
<path d="M10.0391 10.8906V15.8233" stroke="white" stroke-miterlimit="10" stroke-linecap="round" stroke-linejoin="round"/>
<path d="M13.9414 8.84622V6.14258H10.0391V8.85703" stroke="white" stroke-miterlimit="10" stroke-linecap="round" stroke-linejoin="round"/>
<path d="M25.1955 26.6035H1.80259C1.02492 26.6035 0.394531 25.9731 0.394531 25.1955V24.5777C0.394531 24.4151 0.526367 24.2832 0.689053 24.2832H26.309C26.4716 24.2832 26.6035 24.415 26.6035 24.5777V25.1955C26.6035 25.9731 25.9731 26.6035 25.1955 26.6035Z" stroke="white" stroke-miterlimit="10" stroke-linecap="round" stroke-linejoin="round"/>
<path d="M18.5022 10.7988H8.06641C7.94992 10.7988 7.85547 10.7044 7.85547 10.5879V9.2168C7.85547 9.10031 7.94992 9.00586 8.06641 9.00586H18.5022C18.6187 9.00586 18.7131 9.10031 18.7131 9.2168V10.5879C18.7131 10.7044 18.6187 10.7988 18.5022 10.7988Z" stroke="white" stroke-miterlimit="10" stroke-linecap="round" stroke-linejoin="round"/>
<path d="M17.4355 10.7969H15.8535V24.2969H17.4355V10.7969Z" stroke="white" stroke-miterlimit="10" stroke-linecap="round" stroke-linejoin="round"/>
<path d="M10.1758 12.6172H13.8009" stroke="white" stroke-miterlimit="10" stroke-linecap="round" stroke-linejoin="round"/>
</svg>
