<svg width="11" height="14" viewBox="0 0 11 14" fill="none" xmlns="http://www.w3.org/2000/svg">
<path d="M5.5 0.5C8.25126 0.5 10.4998 2.7771 10.5 5.59961C10.5 7.4443 9.71672 9.0851 8.73145 10.4062C8.00857 11.3753 7.19083 12.1534 6.55176 12.6904C6.23317 12.9581 5.96095 13.1644 5.76953 13.3027C5.67391 13.3718 5.59839 13.4237 5.54785 13.458C5.52825 13.4713 5.51188 13.4814 5.5 13.4893C5.48818 13.4814 5.47242 13.4711 5.45312 13.458C5.40258 13.4237 5.32712 13.3718 5.23145 13.3027C5.0399 13.1644 4.76708 12.9583 4.44824 12.6904C3.80895 12.1534 2.9914 11.3753 2.26855 10.4062C1.28328 9.0851 0.5 7.4443 0.5 5.59961C0.500158 2.77715 2.7496 0.5 5.5 0.5ZM5.5 2.2998C3.95055 2.2998 2.70824 3.57741 2.70801 5.13281C2.70801 6.68841 3.95041 7.9668 5.5 7.9668C7.04959 7.9668 8.29199 6.68841 8.29199 5.13281C8.29176 3.57741 7.04944 2.2998 5.5 2.2998Z" stroke="#0036BC"/>
</svg>
