<svg width="40" height="40" viewBox="0 0 40 40" fill="none" xmlns="http://www.w3.org/2000/svg">
<path d="M20.8701 19.7039C20.4068 19.7039 19.9511 19.5875 19.541 19.3571C18.8118 18.9495 18.3156 18.2431 18.1789 17.4204C18.0093 16.4026 17.4296 15.5115 16.5865 14.9799L6.56121 8.64568C6.27766 8.46593 6.19158 8.09125 6.37133 7.80771C6.55108 7.52416 6.92576 7.43809 7.20931 7.61783L17.2346 13.952C18.3688 14.6685 19.1511 15.8609 19.3764 17.2204C19.4523 17.6786 19.7283 18.071 20.1359 18.2988C20.8194 18.6811 21.6954 18.4735 22.1334 17.8229C22.2372 17.671 22.3106 17.5039 22.3511 17.3292C22.5232 16.6128 22.9182 15.99 23.4903 15.5267C23.6296 15.4128 23.7485 15.2761 23.8422 15.1166C24.2397 14.4431 24.0523 13.5596 23.4144 13.1064C22.9739 12.795 22.4144 12.7368 21.9207 12.9545C20.9156 13.3976 19.7739 13.3191 18.865 12.7444L8.21943 6.01783C7.93589 5.83809 7.84981 5.4634 8.02956 5.17986C8.20931 4.89631 8.58399 4.81024 8.86753 4.98998L19.5131 11.7166C20.0802 12.0735 20.7941 12.1216 21.4296 11.8406C22.3182 11.4482 23.3232 11.5495 24.1156 12.1115C24.6751 12.5064 25.0625 13.0963 25.2068 13.7697C25.3511 14.4431 25.2372 15.1394 24.8903 15.7292C24.7232 16.0128 24.5106 16.2609 24.2574 16.4659C23.8929 16.7596 23.6448 17.1571 23.5334 17.6128C23.4574 17.9292 23.3258 18.228 23.141 18.5014C22.7587 19.0685 22.1789 19.4685 21.508 19.628C21.2979 19.6786 21.0827 19.7039 20.8701 19.7039Z" fill="#0036BC"/>
<path d="M21.7515 37.1063C21.7186 37.1063 21.6831 37.1037 21.6502 37.0987C21.3186 37.043 21.0958 36.729 21.154 36.3974L22.3895 29.1164C22.6679 27.4354 23.5186 25.924 24.7793 24.8607L24.7869 24.8531C24.9287 24.7316 25.0097 24.5594 25.0122 24.3721C25.0148 24.1797 24.9363 24.0025 24.7945 23.8759L23.4755 22.6911C23.3464 22.5771 23.1895 22.5113 23.03 22.5113C22.5743 22.5088 22.1262 22.3822 21.7363 22.1442C21.5692 22.043 21.3819 21.9771 21.1819 21.9544C20.473 21.8683 19.8046 22.3493 19.6603 23.0506C19.5743 23.4708 19.6857 23.8987 19.9616 24.2253C20.7692 25.1746 21.1135 26.443 20.9034 27.7063L19.4781 36.1265C19.4224 36.4582 19.1084 36.6809 18.7768 36.6252C18.4452 36.5696 18.2224 36.2556 18.2781 35.924L19.7008 27.5063C19.8527 26.5999 19.6072 25.6911 19.0325 25.0126C18.511 24.3999 18.3059 23.5974 18.4654 22.8075C18.7338 21.4885 19.9895 20.5847 21.3236 20.7493C21.6958 20.7949 22.0452 20.9164 22.3616 21.1088C22.5641 21.2328 22.7945 21.2987 23.03 21.2987C23.4857 21.3012 23.9312 21.4759 24.2806 21.7898L25.5971 22.9746C25.9971 23.3341 26.2249 23.8506 26.2173 24.3898C26.2097 24.9265 25.9743 25.4328 25.5667 25.7797L25.554 25.7898C24.511 26.6683 23.8097 27.9189 23.5768 29.3189L22.3414 36.6025C22.2983 36.8961 22.0426 37.1063 21.7515 37.1063Z" fill="#0036BC"/>
<path d="M27.7112 21.2961C27.6783 21.2961 27.6428 21.2961 27.6099 21.2936L25.296 21.1417C24.7618 21.1063 24.3011 20.7999 24.0606 20.324C23.8201 19.8455 23.8479 19.2936 24.139 18.843L25.1416 17.2835C25.4049 16.8759 25.8504 16.6202 26.3365 16.5999C26.8226 16.5797 27.2884 16.7974 27.5821 17.1822C27.977 17.6987 28.4606 18.3265 28.896 18.8911C29.258 19.362 29.3087 19.9797 29.0276 20.5037C28.7593 20.9999 28.2631 21.2961 27.7112 21.2961ZM26.3947 17.8151C26.3897 17.8151 26.3871 17.8151 26.3821 17.8151C26.3289 17.8177 26.2276 17.8379 26.1593 17.9417L25.1568 19.5012C25.0808 19.6177 25.1163 19.724 25.1416 19.7771C25.1694 19.8303 25.2327 19.9214 25.3719 19.929L27.6859 20.0809C27.8479 20.0911 27.9238 19.9822 27.9492 19.9341C27.9745 19.886 28.0226 19.762 27.9238 19.6328C27.4884 19.0658 27.0074 18.4379 26.6125 17.924C26.5441 17.8303 26.4504 17.8151 26.3947 17.8151Z" fill="#0036BC"/>
<path d="M27.1973 39.4433C27.1568 39.4433 27.1188 39.4382 27.0783 39.4306C26.7492 39.3648 26.5365 39.0458 26.6023 38.7167L30.1314 21.1015C30.8656 17.4306 29.215 13.6509 26.0226 11.6939L9.66561 1.68123C9.37954 1.50655 9.2884 1.13186 9.46561 0.845788C9.6403 0.559712 10.015 0.468572 10.3011 0.645788L26.653 10.6584C28.4403 11.7521 29.8276 13.3445 30.6656 15.266C31.5036 17.1876 31.7314 19.2863 31.3188 21.342L27.7922 38.9547C27.734 39.2433 27.4808 39.4433 27.1973 39.4433Z" fill="#0036BC"/>
<path d="M13.7502 37.6256C13.6869 37.6256 13.6211 37.6155 13.5553 37.5927C13.2363 37.4864 13.0667 37.1395 13.173 36.8231C13.1933 36.7623 15.2515 30.5927 14.6287 27.3978C14.33 25.8763 14.5603 24.1168 15.3122 22.1649C15.6059 21.4003 15.9249 20.7598 16.1603 20.3244C14.0844 19.4408 12.1224 18.4661 10.3173 17.418C8.72236 16.494 7.24642 15.5117 5.92996 14.499C3.6692 12.7649 2.66161 11.5421 2.6211 11.4914C2.40844 11.2307 2.44895 10.8484 2.70717 10.6357C2.96793 10.4231 3.35021 10.4636 3.56287 10.7218C3.58566 10.7497 4.5654 11.9244 6.7173 13.5725C8.7173 15.1066 12.173 17.375 17.2641 19.4712C17.4312 19.5395 17.5578 19.6788 17.6135 19.8509C17.6667 20.0231 17.6439 20.2104 17.5451 20.3623C17.5224 20.3978 15.2135 24.0585 15.8236 27.1674C16.5072 30.6763 14.416 36.9471 14.3249 37.213C14.2414 37.4661 14.0034 37.6256 13.7502 37.6256Z" fill="#0036BC"/>
<path d="M33.4602 16.2255C33.207 16.2255 32.9691 16.0635 32.883 15.8103C32.7767 15.4913 32.9488 15.147 33.2678 15.0407L36.3969 14.0002C36.7159 13.8939 37.0602 14.066 37.1665 14.385C37.2729 14.704 37.1007 15.0483 36.7817 15.1546L33.6526 16.1951C33.5893 16.2154 33.5235 16.2255 33.4602 16.2255Z" fill="#0036BC"/>
<path d="M32.4282 13.9446C32.251 13.9446 32.0763 13.8687 31.9548 13.7193C31.7446 13.4586 31.7851 13.0763 32.0459 12.8636L34.6105 10.7902C34.8712 10.5801 35.2535 10.6206 35.4662 10.8814C35.6763 11.1421 35.6358 11.5244 35.375 11.7371L32.8105 13.8105C32.6965 13.9016 32.5624 13.9446 32.4282 13.9446Z" fill="#0036BC"/>
<path d="M36.904 19.1372C36.8838 19.1372 36.861 19.1372 36.8382 19.1346L33.5622 18.7853C33.2281 18.7498 32.9876 18.4511 33.023 18.1169C33.0584 17.7827 33.3572 17.5422 33.6914 17.5777L36.9673 17.9245C37.3015 17.96 37.542 18.2587 37.5065 18.5929C37.4762 18.9043 37.2129 19.1372 36.904 19.1372Z" fill="#0036BC"/>
</svg>
