<svg width="25" height="31" viewBox="0 0 25 31" fill="none" xmlns="http://www.w3.org/2000/svg">
<path d="M20.7813 0H3.28126C2.41181 0.00259666 1.57872 0.349133 0.963932 0.963924C0.34914 1.57872 0.00260372 2.41181 7.05483e-06 3.28125V27.8359C-0.000966504 28.2141 0.098839 28.5857 0.289154 28.9125C0.479469 29.2393 0.75342 29.5095 1.08282 29.6953C1.42082 29.8888 1.80351 29.9906 2.19298 29.9906C2.58244 29.9906 2.96514 29.8888 3.30313 29.6953L6.57344 27.8031L10.9156 30.3297C11.2556 30.5232 11.6401 30.6249 12.0313 30.6249C12.4224 30.6249 12.8069 30.5232 13.1469 30.3297L17.5109 27.8031L20.7594 29.6953C21.0974 29.8888 21.4801 29.9906 21.8695 29.9906C22.259 29.9906 22.6417 29.8888 22.9797 29.6953C23.3091 29.5095 23.583 29.2393 23.7734 28.9125C23.9637 28.5857 24.0635 28.2141 24.0625 27.8359V3.28125C24.0599 2.41181 23.7134 1.57872 23.0986 0.963924C22.4838 0.349133 21.6507 0.00259666 20.7813 0ZM12.0313 17.5H5.46876C5.17868 17.5 4.90048 17.3848 4.69536 17.1796C4.49024 16.9745 4.37501 16.6963 4.37501 16.4062C4.37501 16.1162 4.49024 15.838 4.69536 15.6329C4.90048 15.4277 5.17868 15.3125 5.46876 15.3125H12.0313C12.3213 15.3125 12.5995 15.4277 12.8047 15.6329C13.0098 15.838 13.125 16.1162 13.125 16.4062C13.125 16.6963 13.0098 16.9745 12.8047 17.1796C12.5995 17.3848 12.3213 17.5 12.0313 17.5ZM19.6875 7.65625C19.6875 7.94633 19.5723 8.22453 19.3672 8.42965C19.162 8.63477 18.8838 8.75 18.5938 8.75H5.46876C5.17868 8.75 4.90048 8.63477 4.69536 8.42965C4.49024 8.22453 4.37501 7.94633 4.37501 7.65625C4.37501 7.36617 4.49024 7.08797 4.69536 6.88285C4.90048 6.67773 5.17868 6.5625 5.46876 6.5625H18.5938C18.8838 6.5625 19.162 6.67773 19.3672 6.88285C19.5723 7.08797 19.6875 7.36617 19.6875 7.65625ZM5.46876 13.125C5.17868 13.125 4.90048 13.0098 4.69536 12.8046C4.49024 12.5995 4.37501 12.3213 4.37501 12.0312C4.37501 11.7412 4.49024 11.463 4.69536 11.2579C4.90048 11.0527 5.17868 10.9375 5.46876 10.9375H18.5938C18.8838 10.9375 19.162 11.0527 19.3672 11.2579C19.5723 11.463 19.6875 11.7412 19.6875 12.0312C19.6875 12.3213 19.5723 12.5995 19.3672 12.8046C19.162 13.0098 18.8838 13.125 18.5938 13.125H5.46876Z" fill="#888888"/>
</svg>
