<svg width="75" height="84" viewBox="0 0 75 84" fill="none" xmlns="http://www.w3.org/2000/svg">
<path d="M56.6141 47.6387C46.5894 47.6387 38.4336 55.7944 38.4336 65.8192C38.4336 75.8441 46.5893 83.9998 56.6141 83.9998C66.639 83.9998 74.7947 75.8441 74.7947 65.8192C74.7947 55.7944 66.639 47.6387 56.6141 47.6387ZM64.3293 68.2813H56.6141C55.2544 68.2813 54.1519 67.1788 54.1519 65.819V57.6117C54.1519 56.2519 55.2544 55.1494 56.6141 55.1494C57.9739 55.1494 59.0764 56.2519 59.0764 57.6117V63.357H64.3293C65.6891 63.357 66.7916 64.4595 66.7916 65.8192C66.7916 67.179 65.6892 68.2813 64.3293 68.2813Z" fill="#0036BC"/>
<path d="M52.122 2.1858C51.3425 0.837701 49.8907 0 48.3333 0H33.8555V17.6093H60.9146L52.122 2.1858Z" fill="#0036BC"/>
<path d="M14.3114 0C12.7516 0 11.2987 0.839506 10.5196 2.19072L1.81641 17.6094H28.93V0H14.3114Z" fill="#0036BC"/>
<path d="M0 22.5312V65.7308C0 69.085 2.72885 71.8139 6.08293 71.8139H34.1692C33.6573 69.8999 33.3829 67.89 33.3829 65.8171C33.3827 53.0073 43.8043 42.5857 56.6141 42.5857C58.6975 42.5857 60.7169 42.863 62.6392 43.3798V22.5312H0Z" fill="#0036BC"/>
</svg>
