<svg width="19" height="19" viewBox="0 0 19 19" fill="none" xmlns="http://www.w3.org/2000/svg">
<path fill-rule="evenodd" clip-rule="evenodd" d="M4.26724 12.3823C4.26724 11.3823 4.26674 11.3823 4.26674 11.3823L4.26502 11.3823L4.26226 11.3823L4.25516 11.3824L4.23479 11.3826C4.21854 11.3829 4.19697 11.3834 4.17063 11.3843C4.11803 11.3861 4.04586 11.3896 3.95852 11.3963C3.78522 11.4097 3.54512 11.4362 3.27563 11.4901C2.77499 11.5903 2.00491 11.8162 1.43881 12.3823C1.02052 12.8006 0.874905 13.4174 0.805974 13.831C0.726734 14.3065 0.703978 14.8324 0.703978 15.2991C0.703978 15.7722 0.72754 16.2171 0.750714 16.5415C0.762358 16.7045 0.774043 16.839 0.782923 16.9338C0.787366 16.9812 0.791118 17.0187 0.793827 17.045L0.797065 17.0759L0.798019 17.0847L0.798454 17.0887C0.798454 17.0887 0.798483 17.089 1.79237 16.9785L0.798454 17.0887C0.850103 17.5535 1.21709 17.9208 1.68194 17.9724L1.79237 16.9785C1.68194 17.9724 1.68194 17.9724 1.68194 17.9724L1.68347 17.9726L1.68617 17.9729L1.69498 17.9738L1.72588 17.9771C1.75218 17.9798 1.78973 17.9835 1.83713 17.988C1.93185 17.9968 2.06634 18.0085 2.22935 18.0202C2.55378 18.0433 2.99871 18.0669 3.47175 18.0669C3.93852 18.0669 4.46444 18.0442 4.93987 17.9649C5.35346 17.896 5.97027 17.7504 6.38856 17.3321C6.95466 16.766 7.18063 15.9959 7.28075 15.4953C7.33465 15.2258 7.36124 14.9857 7.37457 14.8124C7.38129 14.725 7.38477 14.6529 7.38659 14.6003C7.38749 14.5739 7.38799 14.5523 7.38825 14.5361L7.38851 14.5157L7.38855 14.5086L7.38856 14.5059L7.38856 14.5047C7.38856 14.5047 5.71916 14.5036 7.38856 14.5036C7.38856 13.9514 6.94085 13.5036 6.38856 13.5036C5.83643 13.5036 5.38882 13.9511 5.38856 14.5032L5.38856 14.5019L5.38857 14.5007L5.38856 14.5032C5.38848 14.508 5.38825 14.5176 5.38777 14.5313C5.38683 14.5588 5.38479 14.6027 5.38046 14.659C5.37169 14.7729 5.35408 14.9306 5.31959 15.103C5.24718 15.4651 5.12931 15.7444 4.9976 15.8931C4.98624 15.8948 4.88509 15.9465 4.61107 15.9921C4.29102 16.0455 3.88885 16.0669 3.47175 16.0669C3.20851 16.0669 2.95189 16.0584 2.72406 16.0468C2.71245 15.819 2.70398 15.5624 2.70398 15.2991C2.70398 14.882 2.72542 14.4799 2.77876 14.1598C2.82443 13.8858 2.87612 13.7846 2.87778 13.7733C3.02645 13.6416 3.3058 13.5237 3.66786 13.4513C3.84032 13.4168 3.99796 13.3992 4.11192 13.3904C4.16821 13.3861 4.21205 13.3841 4.23956 13.3831C4.25326 13.3826 4.26277 13.3824 4.26758 13.3824M4.2707 13.3823C4.82139 13.3805 5.26724 12.9335 5.26724 12.3823C5.26724 11.83 4.81902 11.3823 4.26674 11.3823L4.26724 12.3823" fill="white"/>
<path fill-rule="evenodd" clip-rule="evenodd" d="M17.8016 0.0731014C18.2752 0.120493 18.6497 0.495068 18.6971 0.968629C19.0765 4.76325 17.9398 8.02557 16.1459 10.3048C15.7123 10.8557 15.234 11.3557 14.7239 11.7933C15.3553 12.923 15.4992 14.248 14.9683 15.4868C14.2521 17.1579 12.4495 18.3519 9.77101 18.7344C9.48403 18.7754 9.19338 18.6898 8.97439 18.4999C8.7554 18.3099 8.62962 18.0343 8.62964 17.7444C8.62978 15.7403 8.93286 14.5922 9.12359 13.8697L9.12389 13.8685C9.14371 13.7934 9.16236 13.7228 9.17929 13.6564C9.06249 13.6066 8.95536 13.5347 8.86424 13.4435L5.32815 9.90744C5.22904 9.80834 5.15263 9.69029 5.10274 9.56147C5.0318 9.57944 4.95611 9.59942 4.87506 9.62082C4.15255 9.81155 3.00421 10.1147 1.00007 10.1148C0.715858 10.1149 0.445062 9.99393 0.255361 9.78229C0.065658 9.57065 -0.0250269 9.28829 0.00596959 9.00577C0.30666 6.26508 1.44837 4.39346 3.14699 3.6655C4.43471 3.11365 5.817 3.31618 6.99534 4.02606C7.42855 3.52367 7.92225 3.0525 8.46552 2.62472C10.7444 0.830345 14.0066 -0.306682 17.8016 0.0731014ZM13.0647 12.9324C12.4693 13.2475 11.8529 13.4797 11.2304 13.6155C11.2051 13.7924 11.1663 13.9549 11.1304 14.0984C11.109 14.1843 11.0854 14.2736 11.0606 14.3677C10.9278 14.871 10.7588 15.5116 10.6775 16.5018C12.1334 16.0737 12.8526 15.3463 13.13 14.699C13.3601 14.1621 13.3499 13.5365 13.0647 12.9324ZM14.5743 9.06783C14.1702 9.58123 13.7366 10.0216 13.2895 10.3885C13.2854 10.388 13.2814 10.3875 13.2773 10.3871C12.187 11.2798 11.0166 11.7357 9.99654 11.7474L7.01158 8.76245C7.02774 7.32166 7.92964 5.58097 9.69648 4.18978C11.4091 2.84131 13.85 1.90319 16.7568 2.00066C16.7569 2.00269 16.757 2.00472 16.757 2.00676C16.7591 2.00682 16.7611 2.00689 16.7631 2.00696C16.8604 4.91365 15.9225 7.35486 14.5743 9.06783ZM5.16294 7.50945C5.30202 6.88629 5.53753 6.26944 5.85595 5.67403C5.17122 5.29716 4.48582 5.26767 3.9348 5.50381C3.299 5.77628 2.57626 6.51687 2.19342 8.07091C3.21171 7.99129 3.86512 7.8189 4.37667 7.68393C4.47079 7.65909 4.56017 7.63551 4.64608 7.61403C4.79871 7.57585 4.97285 7.53448 5.16294 7.50945Z" fill="white"/>
<path d="M13.1641 8.55124C12.383 9.33229 11.1167 9.33229 10.3357 8.55124C9.5546 7.7702 9.5546 6.50387 10.3357 5.72282C11.1167 4.94177 12.383 4.94177 13.1641 5.72282C13.9451 6.50387 13.9451 7.7702 13.1641 8.55124Z" fill="white"/>
</svg>
