<svg width="36" height="36" viewBox="0 0 36 36" fill="none" xmlns="http://www.w3.org/2000/svg">
<g clip-path="url(#clip0_395_23251)">
<path d="M30.0097 24.9179V23.8307C30.0092 23.5807 29.9163 23.3396 29.749 23.1539C29.5817 22.9681 29.3517 22.8506 29.1031 22.824C28.6179 20.0581 26.9891 18.0907 24.2547 16.9734C24.1764 16.9414 24.0911 16.9301 24.0071 16.9406C23.923 16.9512 23.8432 16.9833 23.7752 17.0337C23.7072 17.0842 23.6534 17.1513 23.6189 17.2287C23.5844 17.306 23.5705 17.3909 23.5785 17.4752C23.705 18.8252 21.9613 19.2305 19.0745 19.7374C18.3964 19.8564 17.6963 19.9795 17.0093 20.1311V18.9657C17.0093 16.4452 15.2308 14.242 12.808 13.6747V12.9786H13.0133C13.2659 12.9783 13.508 12.8778 13.6866 12.6992C13.8652 12.5206 13.9657 12.2785 13.966 12.0259V8.53027C13.9657 8.27769 13.8652 8.03554 13.6866 7.85694C13.508 7.67834 13.2659 7.57788 13.0133 7.5776H11.8672V3.97627C11.8692 3.56961 11.7907 3.16658 11.6365 2.79033C11.4822 2.41407 11.2551 2.072 10.9682 1.78376C10.6814 1.49553 10.3404 1.2668 9.96488 1.11073C9.58936 0.954665 9.18671 0.874323 8.78005 0.874323C8.37339 0.874323 7.97074 0.954665 7.59522 1.11073C7.21971 1.2668 6.87872 1.49553 6.59186 1.78376C6.305 2.072 6.07791 2.41407 5.92363 2.79033C5.76935 3.16658 5.69093 3.56961 5.69287 3.97627V7.5776H4.54678C4.2942 7.57788 4.05205 7.67834 3.87345 7.85694C3.69486 8.03554 3.5944 8.27769 3.59412 8.53027V12.0261C3.59441 12.2786 3.69488 12.5208 3.87348 12.6994C4.05207 12.878 4.29421 12.9784 4.54678 12.9787H4.75209V13.6748C2.32927 14.2421 0.550781 16.4451 0.550781 18.9658V32.2571C0.551433 32.8717 0.795902 33.4609 1.23053 33.8955C1.66516 34.33 2.25445 34.5744 2.86905 34.5749H10.8234C11.187 35.0203 11.6451 35.3793 12.1645 35.6258C12.6839 35.8723 13.2517 36.0001 13.8266 36H27.112C28.1414 35.9989 29.1282 35.5894 29.856 34.8616C30.5838 34.1337 30.9933 33.1469 30.9944 32.1176V26.0149C30.9938 25.743 30.893 25.4809 30.7114 25.2785C30.5298 25.0761 30.28 24.9477 30.0097 24.9179ZM29.0253 23.8307V24.9108H11.9133V23.8307C11.9133 23.8232 11.9162 23.8161 11.9215 23.8108C11.9268 23.8055 11.9339 23.8026 11.9414 23.8026H28.9954C29.003 23.8026 29.0104 23.8055 29.0159 23.8107C29.0214 23.816 29.0248 23.8231 29.0253 23.8307ZM19.2448 20.7071C20.6204 20.4656 21.9197 20.2375 22.8877 19.8117C23.7858 19.4166 24.3271 18.8648 24.5048 18.1653C26.4989 19.1543 27.6811 20.6851 28.101 22.8182H13.4381C14.6328 21.5178 17.0635 21.09 19.2448 20.7071ZM6.67767 3.97627C6.67767 3.41862 6.8992 2.88381 7.29352 2.48949C7.68783 2.09517 8.22265 1.87364 8.7803 1.87364C9.33795 1.87364 9.87276 2.09517 10.2671 2.48949C10.6614 2.88381 10.8829 3.41862 10.8829 3.97627V7.5776H6.67767V3.97627ZM4.57905 11.9941V8.56219H12.9814V11.9941H4.57905ZM1.53572 18.9657C1.54165 17.9029 1.92545 16.8769 2.61849 16.0711C3.31152 15.2654 4.26859 14.7324 5.31853 14.5676C5.43499 14.55 5.54128 14.4912 5.61808 14.4019C5.69488 14.3126 5.73711 14.1987 5.7371 14.0809V12.9787H11.8238V14.0809C11.8238 14.1987 11.866 14.3126 11.9428 14.4019C12.0196 14.4912 12.1259 14.55 12.2423 14.5676C13.2923 14.7324 14.2493 15.2654 14.9424 16.0711C15.6354 16.8769 16.0192 17.9029 16.0252 18.9657V19.8665H1.53572V18.9657ZM2.86905 33.5907C2.51556 33.5903 2.17666 33.4497 1.9267 33.1998C1.67674 32.9498 1.53613 32.6109 1.53572 32.2574V28.6399H9.94425V32.1176C9.94393 32.6228 10.0428 33.1232 10.2352 33.5903L2.86905 33.5907ZM9.94425 26.0149V27.6552H1.53572V20.8511H14.6464C13.6153 21.2922 12.748 21.9065 12.2199 22.8182H11.9414C11.673 22.8185 11.4156 22.9253 11.2258 23.1151C11.036 23.3049 10.9292 23.5623 10.9289 23.8307V24.9176C10.6585 24.9473 10.4086 25.0757 10.2269 25.2782C10.0453 25.4806 9.94463 25.7429 9.94425 26.0149ZM30.0097 32.1176C30.0089 32.8859 29.7033 33.6225 29.1601 34.1658C28.6169 34.7091 27.8803 35.0147 27.112 35.0157H13.8266C13.3703 35.0155 12.9205 34.9076 12.5139 34.7006C12.1072 34.4936 11.7553 34.1934 11.4867 33.8245C11.4746 33.8046 11.4611 33.7857 11.4463 33.7677C11.1089 33.2837 10.9283 32.7078 10.9288 32.1178V26.0149C10.9292 25.9834 10.9419 25.9532 10.9642 25.9309C10.9866 25.9086 11.0167 25.8958 11.0483 25.8954H29.8882C29.9201 25.8955 29.9507 25.9081 29.9734 25.9304C29.9961 25.9528 30.0092 25.9831 30.0099 26.0149L30.0097 32.1176ZM20.4693 27.4579C17.7201 27.4579 15.5665 28.7746 15.5665 30.4555C15.5665 32.1363 17.7201 33.4529 20.4693 33.4529C23.2185 33.4529 25.3721 32.1363 25.3721 30.4555C25.3721 28.7746 23.2185 27.4579 20.4693 27.4579ZM20.4693 32.4683C18.1603 32.4683 16.551 31.4075 16.551 30.4555C16.551 29.9794 16.932 29.4901 17.5961 29.113C18.3575 28.6806 19.3779 28.4425 20.4693 28.4425C21.5607 28.4425 22.5811 28.6806 23.3426 29.113C24.0067 29.4901 24.3876 29.9794 24.3876 30.4555C24.3876 31.4075 22.7784 32.4683 20.4693 32.4683ZM34.9442 20.6508L33.7166 18.5661C33.6731 18.4923 33.6111 18.431 33.5367 18.3885C33.4623 18.346 33.3781 18.3236 33.2924 18.3236C33.2066 18.3236 33.1224 18.3461 33.048 18.3886C32.9736 18.4312 32.9117 18.4925 32.8682 18.5664L31.6428 20.6508C30.941 21.8391 30.9687 22.9508 31.7186 23.7006C32.1366 24.1176 32.7029 24.3518 33.2933 24.3518C33.8838 24.3518 34.4501 24.1176 34.8681 23.7006C35.6157 22.9528 35.6435 21.8416 34.9442 20.6508ZM34.1722 23.0042C33.939 23.2369 33.623 23.3676 33.2936 23.3676C32.9641 23.3676 32.6481 23.2369 32.4149 23.0042C31.8578 22.4471 32.2233 21.6041 32.4912 21.1504L33.2928 19.7869L34.0956 21.15C34.362 21.6044 34.727 22.4491 34.1722 23.0042ZM18.4448 7.05617L17.7577 7.74347C17.6732 7.82739 17.606 7.92718 17.5601 8.03711C17.5142 8.14705 17.4905 8.26497 17.4903 8.3841C17.49 8.50323 17.5134 8.62123 17.5589 8.73133C17.6044 8.84144 17.6712 8.94147 17.7554 9.02569L19.9719 11.2443C20.143 11.4116 20.3729 11.5052 20.6122 11.5048C20.8515 11.5044 21.0811 11.41 21.2516 11.2421L22.7481 9.74534L30.6243 17.6198C30.9393 17.9312 31.3647 18.1054 31.8076 18.1041C32.2505 18.1029 32.6749 17.9264 32.9881 17.6132C33.3013 17.3 33.4778 16.8756 33.479 16.4327C33.4803 15.9898 33.3062 15.5644 32.9947 15.2495L25.1197 7.37271L26.6169 5.87506C26.7857 5.70477 26.8804 5.47472 26.8804 5.23497C26.8804 4.99521 26.7857 4.76516 26.6169 4.59488L24.3987 2.37659C24.2283 2.20867 23.9986 2.11472 23.7593 2.11512C23.5201 2.11553 23.2907 2.21027 23.1208 2.37877L22.4306 3.06924L20.1836 0.823947C19.6547 0.29827 18.9389 0.00373366 18.1931 0.00488618C17.4474 0.0060387 16.7325 0.302786 16.2052 0.830096C15.6778 1.35741 15.3811 2.07227 15.3799 2.81801C15.3787 3.56376 15.6732 4.27956 16.1988 4.80856L18.4448 7.05617ZM32.2985 15.9456C32.4268 16.0756 32.4985 16.2511 32.4979 16.4337C32.4973 16.6163 32.4244 16.7913 32.2953 16.9204C32.1662 17.0496 31.9912 17.1224 31.8086 17.1229C31.6259 17.1235 31.4505 17.0518 31.3205 16.9235L23.4441 9.04924L24.4238 8.06923L32.2985 15.9456ZM23.7608 3.13083L25.8648 5.23493L24.0823 7.01778C24.08 7.02003 24.0775 7.022 24.0753 7.02424C24.0731 7.02649 24.0711 7.02917 24.0688 7.03128L22.4133 8.68742C22.4086 8.69178 22.4036 8.69564 22.3992 8.70021C22.3948 8.70478 22.3906 8.70978 22.3863 8.71428L20.6109 10.4904L18.5078 8.38542L23.7608 3.13083ZM16.8951 1.52018C17.2397 1.17782 17.7057 0.985671 18.1914 0.985671C18.6771 0.985671 19.1431 1.17782 19.4876 1.52018L21.7344 3.76526L19.1408 6.35979L16.8952 4.11253C16.5529 3.76801 16.3607 3.30204 16.3607 2.81636C16.3607 2.33067 16.5529 1.86471 16.8952 1.52018H16.8951Z" fill="#0036BC"/>
</g>
<defs>
<clipPath id="clip0_395_23251">
<rect width="36" height="36" fill="white"/>
</clipPath>
</defs>
</svg>
