<svg width="24" height="24" viewBox="0 0 24 24" fill="none" xmlns="http://www.w3.org/2000/svg">
<path d="M13.73 3.51063L15.49 7.03063C15.73 7.52063 16.37 7.99063 16.91 8.08063L20.1 8.61062C22.14 8.95062 22.62 10.4306 21.15 11.8906L18.67 14.3706C18.25 14.7906 18.02 15.6006 18.15 16.1806L18.86 19.2506C19.42 21.6806 18.13 22.6206 15.98 21.3506L12.99 19.5806C12.45 19.2606 11.56 19.2606 11.01 19.5806L8.01997 21.3506C5.87997 22.6206 4.57997 21.6706 5.13997 19.2506L5.84997 16.1806C5.97997 15.6006 5.74997 14.7906 5.32997 14.3706L2.84997 11.8906C1.38997 10.4306 1.85997 8.95062 3.89997 8.61062L7.08997 8.08063C7.61997 7.99063 8.25997 7.52063 8.49997 7.03063L10.26 3.51063C11.22 1.60063 12.78 1.60063 13.73 3.51063Z" stroke="white" stroke-width="1.5" stroke-linecap="round" stroke-linejoin="round"/>
</svg>
