<svg width="12" height="11" viewBox="0 0 12 11" fill="none" xmlns="http://www.w3.org/2000/svg">
<path d="M4.58019 0.690721C4.87955 -0.23059 6.18295 -0.230588 6.48231 0.690722L7.10285 2.60055C7.23672 3.01258 7.62068 3.29154 8.0539 3.29154H10.062C11.0307 3.29154 11.4335 4.53115 10.6498 5.10055L9.0252 6.28089C8.67472 6.53554 8.52806 6.9869 8.66193 7.39893L9.28247 9.30875C9.58183 10.2301 8.52735 10.9962 7.74363 10.4268L6.11903 9.24645C5.76855 8.99181 5.29395 8.99181 4.94346 9.24645L3.31886 10.4268C2.53515 10.9962 1.48067 10.2301 1.78003 9.30876L2.40057 7.39893C2.53444 6.98691 2.38778 6.53554 2.03729 6.28089L0.412695 5.10055C-0.371019 4.53115 0.0317581 3.29154 1.00048 3.29154H3.0086C3.44182 3.29154 3.82578 3.01258 3.95965 2.60055L4.58019 0.690721Z" fill="#FFC337"/>
</svg>
