<svg width="32" height="34" viewBox="0 0 32 34" fill="none" xmlns="http://www.w3.org/2000/svg">
<g clip-path="url(#clip0_313_8106)">
<path d="M13.8517 7.91601H19.8041C21.1642 7.91601 22.1553 6.62901 21.8077 5.31389L21.5714 4.42176C21.3082 3.42614 20.5218 2.63301 19.5138 2.42376C18.6161 2.23814 17.7217 2.13689 16.8273 2.12451C15.9329 2.13689 15.0386 2.23814 14.1408 2.42489C13.1328 2.63414 12.3464 3.42726 12.0832 4.42289L11.8469 5.31501C11.5004 6.62901 12.4916 7.91601 13.8517 7.91601Z" fill="#888888"/>
<path d="M26.0803 18.733C27.23 18.733 28.3168 19.0008 29.2933 19.4643V10.8659C29.2933 8.00842 26.9758 5.69092 24.1183 5.69092H23.8944C23.9327 6.63817 23.6447 7.57079 23.0495 8.34367C22.2677 9.35842 21.0842 9.94117 19.8028 9.94117H13.8504C12.569 9.94117 11.3867 9.35842 10.6048 8.34367C10.0097 7.57192 9.72166 6.63929 9.75991 5.69092H9.53828C6.68078 5.69092 4.36328 8.00842 4.36328 10.8659V25.9634C4.36328 28.8209 6.68078 31.1384 9.53828 31.1384H20.0908C19.1728 29.7198 18.5023 28.1054 18.5023 26.383C18.5023 22.1643 21.902 18.733 26.0803 18.733ZM11.129 25.6304H10.1964C9.63728 25.6304 9.18391 25.177 9.18391 24.6179C9.18391 24.0588 9.63728 23.6054 10.1964 23.6054H11.129C11.6882 23.6054 12.1415 24.0588 12.1415 24.6179C12.1415 25.177 11.6882 25.6304 11.129 25.6304ZM11.129 20.533H10.1964C9.63728 20.533 9.18391 20.0797 9.18391 19.5205C9.18391 18.9614 9.63728 18.508 10.1964 18.508H11.129C11.6882 18.508 12.1415 18.9614 12.1415 19.5205C12.1415 20.0797 11.6882 20.533 11.129 20.533ZM11.129 15.4458H10.1964C9.63728 15.4458 9.18391 14.9924 9.18391 14.4333C9.18391 13.8742 9.63728 13.4208 10.1964 13.4208H11.129C11.6882 13.4208 12.1415 13.8742 12.1415 14.4333C12.1415 14.9924 11.6882 15.4458 11.129 15.4458ZM19.4833 20.5297H15.0508C14.4917 20.5297 14.0383 20.0763 14.0383 19.5172C14.0383 18.958 14.4917 18.5047 15.0508 18.5047H19.4833C20.0424 18.5047 20.4958 18.958 20.4958 19.5172C20.4958 20.0763 20.0424 20.5297 19.4833 20.5297ZM15.0463 13.4197H23.4579C24.017 13.4197 24.4704 13.873 24.4704 14.4322C24.4704 14.9913 24.017 15.4447 23.4579 15.4447H15.0463C14.4872 15.4447 14.0338 14.9913 14.0338 14.4322C14.0338 13.873 14.4872 13.4197 15.0463 13.4197ZM16.7608 25.627H15.0508C14.4917 25.627 14.0383 25.1737 14.0383 24.6145C14.0383 24.0554 14.4917 23.602 15.0508 23.602H16.7608C17.3199 23.602 17.7733 24.0554 17.7733 24.6145C17.7733 25.1737 17.3199 25.627 16.7608 25.627Z" fill="#888888"/>
<path d="M26.0803 20.7578C23.0136 20.7578 20.5273 23.2767 20.5273 26.3828C20.5273 28.9512 22.6255 31.3981 24.2421 32.9033C25.276 33.8663 26.8847 33.8663 27.9186 32.9033C29.5352 31.3981 31.6333 28.9512 31.6333 26.3828C31.6322 23.2756 29.1471 20.7578 26.0803 20.7578ZM27.0917 26.3479C27.0917 26.9071 26.6383 27.3604 26.0792 27.3604C25.5201 27.3604 25.0667 26.9071 25.0667 26.3479C25.0667 25.7888 25.5201 25.2938 26.0792 25.2938C26.6383 25.2938 27.0917 25.7056 27.0917 26.2647V26.3479Z" fill="#888888"/>
</g>
<defs>
<clipPath id="clip0_313_8106">
<rect width="32" height="34" fill="white"/>
</clipPath>
</defs>
</svg>
