<svg width="88" height="88" viewBox="0 0 88 88" fill="none" xmlns="http://www.w3.org/2000/svg">
<g clip-path="url(#clip0_495_10836)">
<path d="M67.2031 62.0469C62.9382 62.0469 59.4688 65.5163 59.4688 69.7812C59.4688 74.0462 62.9382 77.5156 67.2031 77.5156C71.468 77.5156 74.9375 74.0462 74.9375 69.7812C74.9375 65.5163 71.468 62.0469 67.2031 62.0469Z" fill="#14B1FF"/>
<path d="M20.7969 62.0469C16.532 62.0469 13.0625 65.5163 13.0625 69.7812C13.0625 74.0462 16.532 77.5156 20.7969 77.5156C25.0618 77.5156 28.5312 74.0462 28.5312 69.7812C28.5312 65.5163 25.0618 62.0469 20.7969 62.0469Z" fill="#14B1FF"/>
<path d="M0 10.4844V67.2031H8.16716C9.36495 61.3265 14.5723 56.8906 20.7969 56.8906C27.0215 56.8906 32.2288 61.3265 33.4266 67.2031H51.7344V10.4844H0ZM23.375 48.8163V41.4219H7.90625V25.9531H23.375V18.5587L46.0695 33.6875L23.375 48.8163Z" fill="#14B1FF"/>
<path d="M36.7742 33.6876L28.5313 28.1914V31.1095H13.0625V36.2657H28.5313V39.1838L36.7742 33.6876Z" fill="#14B1FF"/>
<path d="M88 51.7344V46.5781H67.2031V31.1094H81.6874L76.5311 20.7969H56.8906V62.1321C59.2415 58.9703 62.9693 56.8906 67.2031 56.8906C73.4277 56.8906 78.635 61.3265 79.8328 67.2031H88V56.8906H77.5156V51.7344H88Z" fill="#14B1FF"/>
<path d="M84.2655 36.2656H72.3594V41.4219H86.8436L84.2655 36.2656Z" fill="#14B1FF"/>
</g>
<defs>
<clipPath id="clip0_495_10836">
<rect width="88" height="88" fill="white"/>
</clipPath>
</defs>
</svg>
