<svg width="28" height="32" viewBox="0 0 28 32" fill="none" xmlns="http://www.w3.org/2000/svg">
<path d="M0 7.05157C0 7.90558 0.692371 8.59845 1.54687 8.59845H2.37268V26.878C2.37268 29.6847 4.65624 31.9688 7.46297 31.9688H20.266C23.0727 31.9688 25.3563 29.6847 25.3563 26.878V8.59845H26.1821C27.0366 8.59845 27.729 7.90557 27.729 7.05157C27.729 6.19758 27.0366 5.5047 26.1821 5.5047H20.7685V3.90949C20.7685 1.75333 19.0152 0 16.8595 0H10.8694C8.71376 0 6.96043 1.75333 6.96043 3.90949V5.50471H1.54687C0.692371 5.5047 0 6.19758 0 7.05157ZM10.0542 3.90949C10.0542 3.45933 10.4198 3.09375 10.8694 3.09375H16.8595C17.3092 3.09375 17.6748 3.45932 17.6748 3.90949V5.50471H10.0542V3.90949ZM5.46644 8.59845H22.2625V26.878C22.2625 27.9787 21.3667 28.875 20.266 28.875H7.46297C6.36224 28.875 5.46643 27.9787 5.46643 26.878L5.46644 8.59845Z" fill="white"/>
<path d="M10.0195 26.0257C10.874 26.0257 11.5664 25.3329 11.5664 24.4789V12.9941C11.5664 12.1401 10.874 11.4473 10.0195 11.4473C9.16503 11.4473 8.47266 12.1401 8.47266 12.9941V24.4789C8.47266 25.3329 9.16503 26.0257 10.0195 26.0257Z" fill="white"/>
<path d="M17.707 26.0257C18.5615 26.0257 19.2539 25.3329 19.2539 24.4789V12.9941C19.2539 12.1401 18.5615 11.4473 17.707 11.4473C16.8525 11.4473 16.1602 12.1401 16.1602 12.9941V24.4789C16.1602 25.3329 16.8525 26.0257 17.707 26.0257Z" fill="white"/>
</svg>
