<svg width="18" height="18" viewBox="0 0 18 18" fill="none" xmlns="http://www.w3.org/2000/svg">
<g clip-path="url(#clip0_535_23859)">
<path d="M16.1567 11.8789C15.6335 11.8789 15.2127 12.3044 15.2127 12.8229V15.6596H2.78255V12.8229C2.78255 12.3021 2.35938 11.8789 1.83854 11.8789C1.31771 11.8789 0.894531 12.3044 0.894531 12.8229V15.6596C0.894531 16.7036 1.74321 17.55 2.78488 17.55H15.215C16.259 17.55 17.1053 16.7059 17.1053 15.6596V12.8229C17.1007 12.3044 16.6798 11.8789 16.1567 11.8789Z" fill="white"/>
<path d="M4.93837 6.78061L8.05407 3.66258V12.8222C8.05407 13.3453 8.47725 13.7639 8.99808 13.7639C9.51892 13.7639 9.9421 13.3453 9.9421 12.8222V3.66258V3.65328L13.0625 6.78061C13.095 6.82014 13.1252 6.85269 13.1624 6.88524C13.5624 7.22239 14.1576 7.16891 14.4924 6.77131C14.8342 6.37371 14.7831 5.77382 14.3831 5.44365L9.66075 0.721262C9.29338 0.358538 8.70744 0.358538 8.34007 0.721262L3.61768 5.44365C3.30844 5.79242 3.30379 6.31325 3.60838 6.67132C3.9432 7.06893 4.53844 7.11775 4.93837 6.78061Z" fill="white"/>
</g>
<defs>
<clipPath id="clip0_535_23859">
<rect width="18" height="18" fill="white"/>
</clipPath>
</defs>
</svg>
