<svg width="56" height="18" viewBox="0 0 56 18" fill="none" xmlns="http://www.w3.org/2000/svg">
<path d="M18.3511 17.9637H23.1742L26.1899 0H21.3685L18.3511 17.9637Z" fill="#191B73"/>
<path d="M19.425 0.00202889L11.8414 17.9465H6.73783L3.01541 4.66223C2.63159 3.29188 1.63888 2.15244 0.299754 1.54208C0.200618 1.49637 0.100253 1.45173 0 1.40933C0.142341 0.93503 0.298638 0.466394 0.466657 0.00320386H4.35353C5.94931 0.0232822 7.12288 0.947312 7.49151 2.31659L9.12001 9.93407C9.11421 9.91848 9.10606 9.90171 9.10014 9.88612L9.59594 12.2051L14.3216 0V0.00224237L19.425 0.00202889Z" fill="#191B73"/>
<path d="M53.029 0.0546875H49.2973C48.147 0.0546875 47.2733 0.371561 46.7752 1.49979L39.6116 17.9634H44.6731L46.0672 14.399H51.7307L52.4539 17.9767H54.4662C55.0774 16.295 55.5219 14.5396 55.7785 12.7273L53.029 0.0546875ZM47.4704 10.8013C47.5707 10.8013 49.4138 4.98381 49.4138 4.98381L50.8824 10.8013C50.8824 10.8013 48.4235 10.8013 47.4704 10.8013Z" fill="#191B73"/>
<path d="M35.9168 7.31731C34.2312 6.52112 33.1981 5.9836 33.1981 5.16936C33.2187 4.42892 34.0718 3.67032 35.977 3.67032C37.544 3.63273 38.6957 3.98495 39.5695 4.33547L40.0071 4.52237L40.6628 0.763879C39.7101 0.411547 38.1996 0.0234375 36.3338 0.0234375C31.5708 0.0234375 28.217 2.39247 28.1962 5.78068C28.1569 8.28097 30.5973 9.6684 32.4238 10.5008C34.2895 11.3547 34.9247 11.9081 34.9247 12.6667C34.9041 13.8314 33.416 14.3689 32.0275 14.3689C30.1036 14.3689 29.0702 14.0921 27.5013 13.4431L26.8662 13.1664L26.1917 17.0723C27.3247 17.5541 29.4082 17.978 31.5709 17.9998C36.6327 17.9998 39.9264 15.6667 39.9678 12.0558C39.9844 10.0747 38.6975 8.55758 35.9168 7.31731Z" fill="#191B73"/>
</svg>
