<svg width="35" height="35" viewBox="0 0 35 35" fill="none" xmlns="http://www.w3.org/2000/svg">
<path d="M11.7781 17.7918C11.598 18.3269 11.6401 18.9119 11.8947 19.4158L15.6001 26.8241C15.9604 27.5449 16.6971 28.0002 17.5029 28.0002C18.3087 28.0002 19.0454 27.5449 19.4057 26.8241L23.1111 19.4158C23.4605 18.7349 23.4174 17.9188 22.998 17.2786C22.5787 16.6384 21.8478 16.2728 21.084 16.3212C20.3202 16.3695 19.6412 16.8244 19.306 17.5124L17.5017 21.1168L15.6987 17.5112C15.3142 16.7414 14.5037 16.2791 13.6454 16.34C12.787 16.4009 12.05 16.9731 11.7781 17.7895V17.7918ZM13.3665 17.6057C13.5942 17.4912 13.8581 17.4721 14.1 17.5527C14.3418 17.6333 14.5415 17.8069 14.6551 18.035L16.9797 22.6842C17.0893 22.8681 17.2876 22.9808 17.5017 22.9808C17.7159 22.9808 17.9142 22.8681 18.0238 22.6842L20.3484 18.0345C20.5921 17.572 21.1609 17.3892 21.6284 17.6232C22.0959 17.8572 22.2905 18.422 22.0663 18.8943L18.361 26.3026C18.1982 26.628 17.8656 26.8336 17.5017 26.8336C17.1379 26.8336 16.8053 26.628 16.6425 26.3026L12.9366 18.8908C12.6996 18.4164 12.8921 17.8398 13.3665 17.6028V17.6057Z" fill="white"/>
<path d="M10.7784 12.6418C10.8995 12.6418 11.0175 12.6041 11.1162 12.5339C12.197 11.7621 12.9618 10.6252 13.2693 9.33317H17.499C17.8212 9.33317 18.0823 9.072 18.0823 8.74984C18.0823 8.42767 17.8212 8.1665 17.499 8.1665H12.7857C12.4945 8.16634 12.2478 8.38094 12.2076 8.66934C12.0431 9.8418 11.4043 10.8952 10.4407 11.5831C10.2337 11.7303 10.1457 11.9945 10.2231 12.2363C10.3006 12.4782 10.5256 12.6422 10.7796 12.6418H10.7784Z" fill="white"/>
<path d="M2.91536 28.5832C3.23753 28.5832 3.4987 28.3221 3.4987 27.9999C3.49917 26.8294 4.08476 25.7366 5.05911 25.0879C5.32047 24.9064 5.38812 24.5489 5.21117 24.2844C5.03422 24.0199 4.67796 23.9461 4.41045 24.1184C3.11247 24.9835 2.33258 26.44 2.33203 27.9999C2.33203 28.3221 2.5932 28.5832 2.91536 28.5832Z" fill="white"/>
<path d="M2.04959 32.9507C2.05718 32.9583 2.06709 32.9607 2.07468 32.9677C3.745 34.6303 6.1417 35.3374 8.44701 34.8477C8.73259 34.9453 9.03191 34.9967 9.33368 35H25.667C26.2853 34.9977 26.8866 34.7978 27.3832 34.4295C29.0091 35.2575 30.9488 35.18 32.5035 34.2249C34.0582 33.2698 35.004 31.5746 35.0003 29.75V22.75C35.0051 21.1511 34.2789 19.6378 33.0287 18.6412C31.7784 17.6446 30.1412 17.2741 28.5837 17.6353V12.9267C28.5808 11.5756 27.7167 10.3768 26.4358 9.947C25.6291 9.67826 25.0845 8.9237 25.0837 8.07333V6.89267C25.7804 6.64635 26.2473 5.98896 26.2503 5.25V1.75C26.2503 0.783502 25.4668 0 24.5003 0H10.5003C9.53385 0 8.75034 0.783502 8.75034 1.75V5.25C8.75341 5.98896 9.22031 6.64635 9.91701 6.89267V8.07333C9.91775 8.48676 9.78723 8.88975 9.54426 9.22425C9.30161 9.56187 8.959 9.8147 8.56484 9.947C7.28241 10.3747 6.41735 11.5748 6.41701 12.9267V21.0297C3.70675 21.2532 1.37198 23.028 0.431545 25.5797C-0.508893 28.1313 0.115665 30.9968 2.03268 32.9257C2.04201 32.9333 2.04201 32.9432 2.04959 32.9507ZM3.31134 32.5138L11.5142 24.311C13.4139 26.6284 13.2469 30.0087 11.128 32.1276C9.00908 34.2465 5.62879 34.4135 3.31134 32.5138ZM29.7503 33.8333C27.4962 33.8308 25.6696 32.0041 25.667 29.75V26.8333H33.8337V29.75C33.8311 32.0041 32.0044 33.8308 29.7503 33.8333ZM33.8337 22.75V25.6667H25.667V22.75C25.667 20.4948 27.4952 18.6667 29.7503 18.6667C32.0055 18.6667 33.8337 20.4948 33.8337 22.75ZM9.91701 1.75C9.91701 1.42783 10.1782 1.16667 10.5003 1.16667H24.5003C24.8225 1.16667 25.0837 1.42783 25.0837 1.75V5.25C25.0837 5.57217 24.8225 5.83333 24.5003 5.83333H23.917V4.08333C23.917 3.76117 23.6558 3.5 23.3337 3.5C23.0115 3.5 22.7503 3.76117 22.7503 4.08333V5.83333H21.0003V4.08333C21.0003 3.76117 20.7392 3.5 20.417 3.5C20.0948 3.5 19.8337 3.76117 19.8337 4.08333V5.83333H18.0837V4.08333C18.0837 3.76117 17.8225 3.5 17.5003 3.5C17.1782 3.5 16.917 3.76117 16.917 4.08333V5.83333H15.167V4.08333C15.167 3.76117 14.9058 3.5 14.5837 3.5C14.2615 3.5 14.0003 3.76117 14.0003 4.08333V5.83333H12.2503V4.08333C12.2503 3.76117 11.9892 3.5 11.667 3.5C11.3448 3.5 11.0837 3.76117 11.0837 4.08333V5.83333H10.5003C10.1782 5.83333 9.91701 5.57217 9.91701 5.25V1.75ZM8.93468 11.0536C10.2162 10.6241 11.0809 9.42491 11.0837 8.07333V7H23.917V8.07333C23.9174 9.42567 24.783 10.6261 26.066 11.0536C26.461 11.1864 26.8041 11.4404 27.0466 11.7793C27.2883 12.1129 27.418 12.5146 27.417 12.9267V14H13.417C13.0948 14 12.8337 14.2612 12.8337 14.5833C12.8337 14.9055 13.0948 15.1667 13.417 15.1667H27.417V18.0542C25.6327 18.9394 24.5031 20.7582 24.5003 22.75V29.75C24.5004 31.2692 25.1603 32.7134 26.3087 33.7079C26.1046 33.7899 25.8869 33.8325 25.667 33.8333H10.8614C12.1257 32.9922 13.0837 31.7643 13.592 30.3333H21.5837C21.9058 30.3333 22.167 30.0722 22.167 29.75C22.167 29.4278 21.9058 29.1667 21.5837 29.1667H13.8948C14.289 26.9432 13.57 24.6676 11.9698 23.0743C11.9628 23.0667 11.9604 23.0568 11.9528 23.0492C11.9453 23.0417 11.9353 23.0393 11.9278 23.0323C10.7609 21.8738 9.22244 21.1645 7.58368 21.0297V15.1667H9.91701C10.2392 15.1667 10.5003 14.9055 10.5003 14.5833C10.5003 14.2612 10.2392 14 9.91701 14H7.58368V12.9267C7.58441 12.0768 8.12844 11.3225 8.93468 11.0536ZM7.00034 22.1667C8.34579 22.1656 9.6498 22.632 10.6893 23.4862L2.48651 31.689C1.05835 29.9456 0.763187 27.5351 1.72852 25.4987C2.69385 23.4622 4.74668 22.1648 7.00034 22.1667Z" fill="white"/>
<path d="M27.4154 23.3335C27.7375 23.3335 27.9987 23.0723 27.9987 22.7502C27.9987 21.7837 28.7822 21.0002 29.7487 21.0002C30.0709 21.0002 30.332 20.739 30.332 20.4168C30.332 20.0947 30.0709 19.8335 29.7487 19.8335C28.1387 19.8354 26.834 21.1401 26.832 22.7502C26.832 23.0723 27.0932 23.3335 27.4154 23.3335Z" fill="white"/>
</svg>
