<svg width="69" height="69" viewBox="0 0 69 69" fill="none" xmlns="http://www.w3.org/2000/svg">
<path d="M34.3662 53.4585C35.4481 53.4585 36.3556 53.0919 37.0888 52.3588C37.8219 51.6257 38.1872 50.7194 38.1847 49.6401C38.1821 48.5607 37.8155 47.6545 37.0849 46.9213C36.3543 46.1882 35.4481 45.8216 34.3662 45.8216C33.2843 45.8216 32.378 46.1882 31.6474 46.9213C30.9168 47.6545 30.5503 48.5607 30.5477 49.6401C30.5452 50.7194 30.9118 51.6269 31.6474 52.3626C32.3831 53.0983 33.2894 53.4636 34.3662 53.4585ZM30.5477 38.1847H38.1847V15.2739H30.5477V38.1847ZM20.0469 68.7324L0 48.6854V20.0469L20.0469 0H48.6854L68.7324 20.0469V48.6854L48.6854 68.7324H20.0469Z" fill="#FF0A0A"/>
</svg>
